<svg width="180" height="180" viewBox="0 0 180 180" xmlns="http://www.w3.org/2000/svg">
  <defs>
    <linearGradient id="faviconGradApple" x1="0%" y1="0%" x2="100%" y2="100%">
      <stop offset="0%" stop-color="#4080FF" />
      <stop offset="50%" stop-color="#FFB001" />
      <stop offset="100%" stop-color="#F44335" />
    </linearGradient>
  </defs>
  
  <!-- Background -->
  <rect width="180" height="180" fill="#ffffff" rx="40"/>
  
  <!-- Chat bubble centered and scaled for Apple touch icon -->
  <g transform="translate(30, 35) scale(2.2)">
    <path 
      d="M10,15 h35 a6,6 0 0 1 6,6 v20 a6,6 0 0 1 -6,6 h-14 l-8,8 l-8,-8 h-5 a6,6 0 0 1 -6,-6 v-20 a6,6 0 0 1 6,-6 z" 
      fill="#4080FF"
      style="fill: url(#faviconGradApple)"
    />
    
    <!-- Chat lines with proper spacing -->
    <rect x="18" y="25" width="20" height="2.5" rx="1.25" fill="#333333" opacity="0.9"/>
    <rect x="18" y="31" width="14" height="2.5" rx="1.25" fill="#333333" opacity="0.9"/>
    <rect x="18" y="37" width="17" height="2.5" rx="1.25" fill="#333333" opacity="0.9"/>
  </g>
</svg> 