<svg width="32" height="32" viewBox="0 0 32 32" xmlns="http://www.w3.org/2000/svg">
  <defs>
    <linearGradient id="chatBubbleGradient" x1="0%" y1="0%" x2="100%" y2="100%">
      <stop offset="0%" stopColor="#4080FF" />
      <stop offset="50%" stopColor="#FFB001" />
      <stop offset="100%" stopColor="#F44335" />
    </linearGradient>
  </defs>
  
  <!-- Chat bubble optimized for small size -->
  <path 
    d="M4,8 h20 a4,4 0 0 1 4,4 v12 a4,4 0 0 1 -4,4 h-8 l-6,4 l-6,-4 h-4 a4,4 0 0 1 -4,-4 v-12 a4,4 0 0 1 4,-4 z" 
    fill="url(#chatBubbleGradient)"
  />
  
  <!-- Simple chat lines for favicon -->
  <rect x="9" y="14" width="14" height="2" rx="1" fill="white" opacity="0.9"/>
  <rect x="9" y="18" width="10" height="2" rx="1" fill="white" opacity="0.9"/>
  <rect x="9" y="22" width="12" height="2" rx="1" fill="white" opacity="0.9"/>
</svg> 